<svg xmlns="http://www.w3.org/2000/svg" width="512" height="512" viewBox="0 0 512 512"><path fill="#008cdb" d="M456.825 380.342c.099-.9.099-1.799.199-2.598-4.997-5.798-9.295-12.295-14.992-17.392-24.088-21.39-49.875-40.08-80.461-51.275-7.396-2.698-12.093-7.296-15.292-14.093-8.396-17.792-17.091-35.483-25.387-53.374-6.897-14.793-12.194-30.485-20.291-44.578-20.99-36.882-49.575-67.067-84.358-91.655-24.788-17.491-50.776-30.985-82.16-31.184-4.698 0-9.896-3.099-13.993-6.098-17.192-11.994-34.883-22.388-56.672-22.088-12.894.2-22.688 9.795-21.889 22.688.399 6.896 2.799 14.293 6.297 20.189 5.897 9.896 13.793 18.491 20.29 28.087 3.998 5.896 7.496 12.294 9.995 18.991 4.998 12.694 8.196 26.187 13.893 38.581 5.297 11.395 12.994 21.689 19.191 32.684 1.399 2.499 2.099 6.297 1.199 8.996-8.695 28.586-14.593 57.372-7.696 87.257 3.698 16.192 9.295 31.484 22.189 42.78 11.994 10.394 25.888 5.597 29.386-9.896.599-2.798.899-5.697 1.399-8.496 1.199-6.897 2.499-13.793 3.798-21.19 8.296 13.094 14.893 25.987 23.888 36.982 9.096 11.095 20.59 20.19 31.085 30.086.5-.5.899-1 1.399-1.4-23.588-30.485-42.579-63.568-55.673-99.75-20.89 16.691-19.291 41.18-23.188 63.768-8.196-1.699-11.694-7.096-14.393-13.093-13.394-29.686-14.094-59.871-4.099-90.655 1.999-6.197 4.798-12.295 5.498-18.592.5-4.198-.7-10.195-3.499-12.993-12.293-12.394-19.29-27.586-23.788-43.878-6.896-24.988-17.891-47.577-34.982-67.167-3.099-3.599-6.197-7.696-7.497-12.194-1.299-4.398-1.999-10.396-.1-14.093 2.499-4.799 8.596-4.198 13.693-2.399 15.292 5.297 29.985 11.594 42.679 21.89 3.599 2.898 8.796 4.797 13.494 5.396 14.293 1.799 28.886 1.2 42.28 7.996 8.095 4.198 16.491 7.896 24.288 12.595 47.277 28.985 82.459 68.366 103.949 120.041 10.695 25.688 23.289 50.576 35.282 75.762 3.798 7.996 9.396 14.693 18.691 16.793 30.485 6.696 54.973 24.788 79.761 42.179 2.898 1.999 5.297 4.897 8.995 8.495-3.698.301-5.097.601-6.497.601-19.39-.3-38.181 2.898-56.472 9.695-5.896 2.198-8.096 4.598-4.397 10.295 2.299 3.598 4.098 7.696 6.696 10.995 10.795 13.793 25.388 22.489 40.38 30.785 14.093 7.696 27.787 16.192 41.48 24.488 3.098 1.799 5.597 4.498 8.396 6.696.6-.6 1.199-1.199 1.699-1.799-4.498-5.098-9.195-9.896-13.393-15.192-12.494-15.692-27.486-28.187-45.078-37.781-4.397-2.399-8.496-5.498-12.294-8.797-2.499-2.198-4.198-5.297-7.196-9.095 22.687-4.7 43.477-8.798 64.268-12.996zM143.978 144.158c6.397-6.597 6.997-12.794 2.199-19.391-4.997-6.897-10.395-8.196-17.491-4.398a7281.544 7281.544 0 0 0 15.292 23.789z"/></svg>